<svg xmlns="http://www.w3.org/2000/svg" xmlns:xlink="http://www.w3.org/1999/xlink" width="1366" zoomAndPan="magnify" viewBox="0 0 1024.5 576" height="768" preserveAspectRatio="xMidYMid meet" version="1.0"><defs><clipPath id="c0df8de1e0"><path d="M 396.855469 172.855469 L 626.992188 172.855469 L 626.992188 402.992188 L 396.855469 402.992188 Z M 396.855469 172.855469 " clip-rule="nonzero"/></clipPath><clipPath id="f650b5301e"><path d="M 433.640625 172.5625 L 589.226562 172.5625 C 590.441406 172.5625 591.65625 172.621094 592.867188 172.742188 C 594.074219 172.859375 595.277344 173.039062 596.46875 173.273438 C 597.660156 173.511719 598.839844 173.808594 600.003906 174.160156 C 601.167969 174.511719 602.3125 174.921875 603.433594 175.382812 C 604.558594 175.847656 605.65625 176.367188 606.726562 176.941406 C 607.800781 177.511719 608.84375 178.136719 609.851562 178.808594 C 610.863281 179.484375 611.839844 180.207031 612.78125 180.976562 C 613.71875 181.746094 614.621094 182.5625 615.480469 183.421875 C 616.339844 184.277344 617.15625 185.175781 617.925781 186.117188 C 618.699219 187.054688 619.421875 188.027344 620.097656 189.039062 C 620.773438 190.046875 621.398438 191.085938 621.96875 192.15625 C 622.542969 193.226562 623.0625 194.324219 623.527344 195.445312 C 623.992188 196.566406 624.402344 197.710938 624.753906 198.871094 C 625.109375 200.03125 625.402344 201.210938 625.640625 202.398438 C 625.878906 203.589844 626.054688 204.789062 626.175781 206 C 626.292969 207.207031 626.355469 208.417969 626.355469 209.632812 L 626.355469 365.917969 C 626.355469 367.132812 626.292969 368.34375 626.175781 369.550781 C 626.054688 370.761719 625.878906 371.960938 625.640625 373.148438 C 625.402344 374.339844 625.109375 375.515625 624.753906 376.679688 C 624.402344 377.839844 623.992188 378.980469 623.527344 380.105469 C 623.0625 381.226562 622.542969 382.320312 621.96875 383.390625 C 621.398438 384.464844 620.773438 385.503906 620.097656 386.511719 C 619.421875 387.523438 618.699219 388.496094 617.925781 389.433594 C 617.15625 390.371094 616.339844 391.269531 615.480469 392.128906 C 614.621094 392.988281 613.71875 393.804688 612.78125 394.574219 C 611.839844 395.34375 610.863281 396.066406 609.851562 396.738281 C 608.84375 397.414062 607.800781 398.039062 606.726562 398.609375 C 605.65625 399.183594 604.558594 399.699219 603.433594 400.164062 C 602.3125 400.628906 601.167969 401.039062 600.003906 401.390625 C 598.839844 401.742188 597.660156 402.039062 596.46875 402.273438 C 595.277344 402.511719 594.074219 402.6875 592.867188 402.808594 C 591.65625 402.925781 590.441406 402.988281 589.226562 402.988281 L 433.640625 402.988281 C 432.425781 402.988281 431.210938 402.925781 430 402.808594 C 428.789062 402.691406 427.589844 402.511719 426.398438 402.273438 C 425.203125 402.039062 424.027344 401.742188 422.863281 401.390625 C 421.699219 401.039062 420.554688 400.628906 419.433594 400.164062 C 418.308594 399.699219 417.210938 399.183594 416.136719 398.609375 C 415.066406 398.039062 414.023438 397.414062 413.011719 396.738281 C 412 396.066406 411.027344 395.34375 410.085938 394.574219 C 409.144531 393.804688 408.246094 392.988281 407.386719 392.128906 C 406.527344 391.269531 405.710938 390.371094 404.941406 389.433594 C 404.167969 388.496094 403.445312 387.523438 402.769531 386.511719 C 402.09375 385.503906 401.46875 384.464844 400.894531 383.390625 C 400.324219 382.320312 399.804688 381.226562 399.339844 380.105469 C 398.871094 378.980469 398.464844 377.839844 398.109375 376.679688 C 397.757812 375.515625 397.460938 374.339844 397.226562 373.148438 C 396.988281 371.960938 396.808594 370.761719 396.691406 369.550781 C 396.570312 368.34375 396.511719 367.132812 396.511719 365.917969 L 396.511719 209.632812 C 396.511719 208.417969 396.570312 207.207031 396.691406 206 C 396.808594 204.789062 396.988281 203.589844 397.226562 202.398438 C 397.460938 201.210938 397.757812 200.03125 398.109375 198.871094 C 398.464844 197.710938 398.871094 196.566406 399.339844 195.445312 C 399.804688 194.324219 400.324219 193.226562 400.894531 192.15625 C 401.46875 191.085938 402.09375 190.046875 402.769531 189.039062 C 403.445312 188.027344 404.167969 187.054688 404.941406 186.117188 C 405.710938 185.175781 406.527344 184.277344 407.386719 183.421875 C 408.246094 182.5625 409.144531 181.746094 410.085938 180.976562 C 411.027344 180.207031 412 179.484375 413.011719 178.808594 C 414.023438 178.136719 415.066406 177.511719 416.136719 176.941406 C 417.210938 176.367188 418.308594 175.847656 419.433594 175.382812 C 420.554688 174.921875 421.699219 174.511719 422.863281 174.160156 C 424.027344 173.808594 425.203125 173.511719 426.398438 173.273438 C 427.589844 173.039062 428.789062 172.859375 430 172.742188 C 431.210938 172.621094 432.425781 172.5625 433.640625 172.5625 Z M 433.640625 172.5625 " clip-rule="nonzero"/></clipPath><linearGradient x1="255.75369" gradientTransform="matrix(1.795362, 0, 0, 1.792485, -61.736147, -589.834439)" y1="554.19629" x2="382.744521" gradientUnits="userSpaceOnUse" y2="424.986825" id="d2e501834b"><stop stop-opacity="1" stop-color="rgb(2.749634%, 0.389099%, 20.779419%)" offset="0"/><stop stop-opacity="1" stop-color="rgb(2.915955%, 0.469971%, 20.829773%)" offset="0.0625"/><stop stop-opacity="1" stop-color="rgb(3.239441%, 0.628662%, 20.925903%)" offset="0.0703125"/><stop stop-opacity="1" stop-color="rgb(3.549194%, 0.78125%, 21.018982%)" offset="0.078125"/><stop stop-opacity="1" stop-color="rgb(3.860474%, 0.932312%, 21.112061%)" offset="0.0859375"/><stop stop-opacity="1" stop-color="rgb(4.170227%, 1.0849%, 21.205139%)" offset="0.09375"/><stop stop-opacity="1" stop-color="rgb(4.481506%, 1.235962%, 21.298218%)" offset="0.101562"/><stop stop-opacity="1" stop-color="rgb(4.79126%, 1.38855%, 21.391296%)" offset="0.109375"/><stop stop-opacity="1" stop-color="rgb(5.102539%, 1.539612%, 21.484375%)" offset="0.117188"/><stop stop-opacity="1" stop-color="rgb(5.412292%, 1.6922%, 21.577454%)" offset="0.125"/><stop stop-opacity="1" stop-color="rgb(5.723572%, 1.843262%, 21.670532%)" offset="0.132812"/><stop stop-opacity="1" stop-color="rgb(6.033325%, 1.99585%, 21.763611%)" offset="0.140625"/><stop stop-opacity="1" stop-color="rgb(6.344604%, 2.146912%, 21.856689%)" offset="0.148438"/><stop stop-opacity="1" stop-color="rgb(6.654358%, 2.2995%, 21.951294%)" offset="0.15625"/><stop stop-opacity="1" stop-color="rgb(6.965637%, 2.450562%, 22.044373%)" offset="0.164062"/><stop stop-opacity="1" stop-color="rgb(7.275391%, 2.603149%, 22.137451%)" offset="0.171875"/><stop stop-opacity="1" stop-color="rgb(7.58667%, 2.754211%, 22.23053%)" offset="0.179688"/><stop stop-opacity="1" stop-color="rgb(7.896423%, 2.906799%, 22.323608%)" offset="0.1875"/><stop stop-opacity="1" stop-color="rgb(8.207703%, 3.057861%, 22.416687%)" offset="0.195312"/><stop stop-opacity="1" stop-color="rgb(8.517456%, 3.210449%, 22.509766%)" offset="0.203125"/><stop stop-opacity="1" stop-color="rgb(8.828735%, 3.361511%, 22.602844%)" offset="0.210938"/><stop stop-opacity="1" stop-color="rgb(9.138489%, 3.514099%, 22.695923%)" offset="0.21875"/><stop stop-opacity="1" stop-color="rgb(9.449768%, 3.665161%, 22.789001%)" offset="0.226562"/><stop stop-opacity="1" stop-color="rgb(9.759521%, 3.817749%, 22.88208%)" offset="0.234375"/><stop stop-opacity="1" stop-color="rgb(10.070801%, 3.970337%, 22.975159%)" offset="0.242188"/><stop stop-opacity="1" stop-color="rgb(10.380554%, 4.121399%, 23.068237%)" offset="0.25"/><stop stop-opacity="1" stop-color="rgb(10.691833%, 4.273987%, 23.161316%)" offset="0.257812"/><stop stop-opacity="1" stop-color="rgb(11.001587%, 4.425049%, 23.254395%)" offset="0.265625"/><stop stop-opacity="1" stop-color="rgb(11.312866%, 4.577637%, 23.347473%)" offset="0.273437"/><stop stop-opacity="1" stop-color="rgb(11.62262%, 4.728699%, 23.442078%)" offset="0.28125"/><stop stop-opacity="1" stop-color="rgb(11.932373%, 4.881287%, 23.535156%)" offset="0.289062"/><stop stop-opacity="1" stop-color="rgb(12.243652%, 5.032349%, 23.628235%)" offset="0.296875"/><stop stop-opacity="1" stop-color="rgb(12.553406%, 5.184937%, 23.721313%)" offset="0.304688"/><stop stop-opacity="1" stop-color="rgb(12.864685%, 5.335999%, 23.814392%)" offset="0.3125"/><stop stop-opacity="1" stop-color="rgb(13.174438%, 5.488586%, 23.907471%)" offset="0.320312"/><stop stop-opacity="1" stop-color="rgb(13.485718%, 5.639648%, 24.000549%)" offset="0.328125"/><stop stop-opacity="1" stop-color="rgb(13.795471%, 5.792236%, 24.093628%)" offset="0.335938"/><stop stop-opacity="1" stop-color="rgb(14.10675%, 5.943298%, 24.186707%)" offset="0.34375"/><stop stop-opacity="1" stop-color="rgb(14.416504%, 6.095886%, 24.279785%)" offset="0.351562"/><stop stop-opacity="1" stop-color="rgb(14.727783%, 6.246948%, 24.372864%)" offset="0.359375"/><stop stop-opacity="1" stop-color="rgb(15.037537%, 6.399536%, 24.465942%)" offset="0.367188"/><stop stop-opacity="1" stop-color="rgb(15.348816%, 6.550598%, 24.559021%)" offset="0.375"/><stop stop-opacity="1" stop-color="rgb(15.658569%, 6.703186%, 24.6521%)" offset="0.382812"/><stop stop-opacity="1" stop-color="rgb(15.969849%, 6.854248%, 24.745178%)" offset="0.390625"/><stop stop-opacity="1" stop-color="rgb(16.279602%, 7.006836%, 24.839783%)" offset="0.398437"/><stop stop-opacity="1" stop-color="rgb(16.590881%, 7.159424%, 24.932861%)" offset="0.40625"/><stop stop-opacity="1" stop-color="rgb(16.900635%, 7.310486%, 25.02594%)" offset="0.414062"/><stop stop-opacity="1" stop-color="rgb(17.211914%, 7.463074%, 25.119019%)" offset="0.421875"/><stop stop-opacity="1" stop-color="rgb(17.521667%, 7.614136%, 25.212097%)" offset="0.429687"/><stop stop-opacity="1" stop-color="rgb(17.832947%, 7.766724%, 25.305176%)" offset="0.4375"/><stop stop-opacity="1" stop-color="rgb(18.1427%, 7.917786%, 25.398254%)" offset="0.445312"/><stop stop-opacity="1" stop-color="rgb(18.453979%, 8.070374%, 25.491333%)" offset="0.453125"/><stop stop-opacity="1" stop-color="rgb(18.763733%, 8.221436%, 25.584412%)" offset="0.460938"/><stop stop-opacity="1" stop-color="rgb(19.075012%, 8.374023%, 25.67749%)" offset="0.46875"/><stop stop-opacity="1" stop-color="rgb(19.384766%, 8.525085%, 25.770569%)" offset="0.476562"/><stop stop-opacity="1" stop-color="rgb(19.696045%, 8.677673%, 25.863647%)" offset="0.484375"/><stop stop-opacity="1" stop-color="rgb(20.005798%, 8.828735%, 25.956726%)" offset="0.492188"/><stop stop-opacity="1" stop-color="rgb(20.317078%, 8.981323%, 26.049805%)" offset="0.494581"/><stop stop-opacity="1" stop-color="rgb(20.472717%, 9.057617%, 26.097107%)" offset="0.5"/><stop stop-opacity="1" stop-color="rgb(20.626831%, 9.132385%, 26.142883%)" offset="0.505419"/><stop stop-opacity="1" stop-color="rgb(20.782471%, 9.208679%, 26.190186%)" offset="0.507812"/><stop stop-opacity="1" stop-color="rgb(20.93811%, 9.284973%, 26.235962%)" offset="0.515625"/><stop stop-opacity="1" stop-color="rgb(21.247864%, 9.436035%, 26.330566%)" offset="0.523438"/><stop stop-opacity="1" stop-color="rgb(21.559143%, 9.588623%, 26.423645%)" offset="0.53125"/><stop stop-opacity="1" stop-color="rgb(21.868896%, 9.739685%, 26.516724%)" offset="0.539062"/><stop stop-opacity="1" stop-color="rgb(22.180176%, 9.892273%, 26.609802%)" offset="0.546875"/><stop stop-opacity="1" stop-color="rgb(22.489929%, 10.044861%, 26.702881%)" offset="0.554688"/><stop stop-opacity="1" stop-color="rgb(22.801208%, 10.195923%, 26.795959%)" offset="0.5625"/><stop stop-opacity="1" stop-color="rgb(23.110962%, 10.348511%, 26.889038%)" offset="0.570312"/><stop stop-opacity="1" stop-color="rgb(23.422241%, 10.499573%, 26.982117%)" offset="0.578125"/><stop stop-opacity="1" stop-color="rgb(23.731995%, 10.652161%, 27.075195%)" offset="0.585938"/><stop stop-opacity="1" stop-color="rgb(24.043274%, 10.803223%, 27.168274%)" offset="0.59375"/><stop stop-opacity="1" stop-color="rgb(24.353027%, 10.955811%, 27.261353%)" offset="0.601562"/><stop stop-opacity="1" stop-color="rgb(24.662781%, 11.106873%, 27.354431%)" offset="0.609375"/><stop stop-opacity="1" stop-color="rgb(24.97406%, 11.25946%, 27.44751%)" offset="0.617188"/><stop stop-opacity="1" stop-color="rgb(25.283813%, 11.410522%, 27.540588%)" offset="0.625"/><stop stop-opacity="1" stop-color="rgb(25.595093%, 11.56311%, 27.633667%)" offset="0.632812"/><stop stop-opacity="1" stop-color="rgb(25.904846%, 11.714172%, 27.726746%)" offset="0.640625"/><stop stop-opacity="1" stop-color="rgb(26.216125%, 11.86676%, 27.82135%)" offset="0.648438"/><stop stop-opacity="1" stop-color="rgb(26.525879%, 12.017822%, 27.914429%)" offset="0.65625"/><stop stop-opacity="1" stop-color="rgb(26.837158%, 12.17041%, 28.007507%)" offset="0.664063"/><stop stop-opacity="1" stop-color="rgb(27.146912%, 12.321472%, 28.100586%)" offset="0.671875"/><stop stop-opacity="1" stop-color="rgb(27.458191%, 12.47406%, 28.193665%)" offset="0.679688"/><stop stop-opacity="1" stop-color="rgb(27.767944%, 12.625122%, 28.286743%)" offset="0.6875"/><stop stop-opacity="1" stop-color="rgb(28.079224%, 12.77771%, 28.379822%)" offset="0.695313"/><stop stop-opacity="1" stop-color="rgb(28.388977%, 12.928772%, 28.4729%)" offset="0.703125"/><stop stop-opacity="1" stop-color="rgb(28.700256%, 13.08136%, 28.565979%)" offset="0.710938"/><stop stop-opacity="1" stop-color="rgb(29.01001%, 13.233948%, 28.659058%)" offset="0.71875"/><stop stop-opacity="1" stop-color="rgb(29.321289%, 13.38501%, 28.752136%)" offset="0.726563"/><stop stop-opacity="1" stop-color="rgb(29.631042%, 13.537598%, 28.845215%)" offset="0.734375"/><stop stop-opacity="1" stop-color="rgb(29.942322%, 13.68866%, 28.938293%)" offset="0.742188"/><stop stop-opacity="1" stop-color="rgb(30.252075%, 13.841248%, 29.031372%)" offset="0.75"/><stop stop-opacity="1" stop-color="rgb(30.563354%, 13.99231%, 29.124451%)" offset="0.757812"/><stop stop-opacity="1" stop-color="rgb(30.873108%, 14.144897%, 29.219055%)" offset="0.765625"/><stop stop-opacity="1" stop-color="rgb(31.184387%, 14.295959%, 29.312134%)" offset="0.773437"/><stop stop-opacity="1" stop-color="rgb(31.494141%, 14.448547%, 29.405212%)" offset="0.78125"/><stop stop-opacity="1" stop-color="rgb(31.80542%, 14.599609%, 29.498291%)" offset="0.789062"/><stop stop-opacity="1" stop-color="rgb(32.115173%, 14.752197%, 29.59137%)" offset="0.796875"/><stop stop-opacity="1" stop-color="rgb(32.426453%, 14.903259%, 29.684448%)" offset="0.804687"/><stop stop-opacity="1" stop-color="rgb(32.736206%, 15.055847%, 29.777527%)" offset="0.8125"/><stop stop-opacity="1" stop-color="rgb(33.047485%, 15.206909%, 29.870605%)" offset="0.820312"/><stop stop-opacity="1" stop-color="rgb(33.357239%, 15.359497%, 29.963684%)" offset="0.828125"/><stop stop-opacity="1" stop-color="rgb(33.668518%, 15.510559%, 30.056763%)" offset="0.835937"/><stop stop-opacity="1" stop-color="rgb(33.978271%, 15.663147%, 30.149841%)" offset="0.84375"/><stop stop-opacity="1" stop-color="rgb(34.289551%, 15.814209%, 30.24292%)" offset="0.851562"/><stop stop-opacity="1" stop-color="rgb(34.599304%, 15.966797%, 30.335999%)" offset="0.859375"/><stop stop-opacity="1" stop-color="rgb(34.910583%, 16.117859%, 30.429077%)" offset="0.867188"/><stop stop-opacity="1" stop-color="rgb(35.220337%, 16.270447%, 30.522156%)" offset="0.875"/><stop stop-opacity="1" stop-color="rgb(35.531616%, 16.423035%, 30.615234%)" offset="0.882812"/><stop stop-opacity="1" stop-color="rgb(35.84137%, 16.574097%, 30.709839%)" offset="0.890625"/><stop stop-opacity="1" stop-color="rgb(36.152649%, 16.726685%, 30.802917%)" offset="0.898437"/><stop stop-opacity="1" stop-color="rgb(36.462402%, 16.877747%, 30.895996%)" offset="0.90625"/><stop stop-opacity="1" stop-color="rgb(36.773682%, 17.030334%, 30.989075%)" offset="0.914062"/><stop stop-opacity="1" stop-color="rgb(37.083435%, 17.181396%, 31.082153%)" offset="0.921875"/><stop stop-opacity="1" stop-color="rgb(37.394714%, 17.333984%, 31.175232%)" offset="0.929687"/><stop stop-opacity="1" stop-color="rgb(37.704468%, 17.485046%, 31.268311%)" offset="0.9375"/><stop stop-opacity="1" stop-color="rgb(37.948608%, 17.605591%, 31.341553%)" offset="1"/></linearGradient></defs><g clip-path="url(#c0df8de1e0)"><g clip-path="url(#f650b5301e)"><path fill="url(#d2e501834b)" d="M 396.855469 172.855469 L 396.855469 402.988281 L 626.355469 402.988281 L 626.355469 172.855469 Z M 396.855469 172.855469 " fill-rule="nonzero"/></g></g><path fill="#ffffff" d="M 513.15625 271.742188 C 519.027344 271.742188 523.476562 270.488281 526.507812 267.917969 C 529.542969 265.347656 531.054688 261.609375 531.054688 256.636719 C 531.054688 251.730469 529.542969 248 526.507812 245.453125 C 523.457031 242.839844 519.027344 241.53125 513.15625 241.53125 L 492.546875 241.53125 L 492.546875 271.742188 L 513.15625 271.742188 M 514.414062 334.171875 C 521.894531 334.171875 527.507812 332.609375 531.25 329.484375 C 535.054688 326.363281 536.957031 321.648438 536.957031 315.339844 C 536.957031 309.152344 535.085938 304.535156 531.34375 301.476562 C 527.605469 298.355469 521.960938 296.792969 514.414062 296.792969 L 492.546875 296.792969 L 492.546875 334.171875 L 514.414062 334.171875 M 549.054688 282.835938 C 557.050781 285.132812 563.242188 289.371094 567.628906 295.550781 C 572.015625 301.730469 574.207031 309.316406 574.210938 318.304688 C 574.210938 332.070312 569.5 342.332031 560.082031 349.089844 C 550.667969 355.84375 536.347656 359.222656 517.125 359.222656 L 455.300781 359.222656 L 455.300781 216.523438 L 511.226562 216.523438 C 531.285156 216.523438 545.800781 219.515625 554.765625 225.507812 C 563.792969 231.5 568.308594 241.089844 568.308594 254.285156 C 568.308594 261.230469 566.664062 267.15625 563.375 272.066406 C 560.085938 276.910156 555.296875 280.492188 549.058594 282.871094 " fill-opacity="1" fill-rule="nonzero"/></svg>